<svg width="58" height="16" viewBox="0 0 58 16" fill="none" xmlns="http://www.w3.org/2000/svg">
<path d="M0 8C0 3.58172 3.58172 0 8 0H50C54.4183 0 58 3.58172 58 8V8C58 12.4183 54.4183 16 50 16H0V8Z" fill="#FF1A25"/>
<path d="M14.84 3.9V7.956H16.196V8.784H11.804C12.524 10.236 14.072 11.46 16.424 12.468L15.884 13.2C13.376 12.12 11.756 10.716 11.024 8.988C10.448 10.596 8.84 12.012 6.2 13.212L5.636 12.468C8.096 11.4 9.644 10.176 10.28 8.784H5.84V7.956H7.16V3.9H10.58V2.184H11.42V3.9H14.84ZM8.012 7.956H10.544L10.58 7.704V4.728H8.012V7.956ZM11.48 7.956H14V4.728H11.42V7.704L11.48 7.956ZM18.152 3.408H20.888C20.72 3 20.528 2.628 20.312 2.292L21.224 2.148C21.416 2.52 21.596 2.94 21.776 3.408H24.284C24.488 2.988 24.644 2.556 24.74 2.124L25.664 2.244C25.544 2.652 25.388 3.036 25.184 3.408H27.848V4.2H23.444V5.34H27.212V6.108H23.444V7.272H28.244V8.064H17.756V7.272H22.556V6.108H18.824V5.34H22.556V4.2H18.152V3.408ZM22.64 8.376L23.528 8.472C23.48 8.784 23.42 9.084 23.336 9.348H27.98V10.164H23.78C24.608 11.268 26.204 12.024 28.568 12.42L28.112 13.236C25.472 12.708 23.756 11.724 22.964 10.284C22.7 10.788 22.352 11.22 21.944 11.604C21.164 12.312 19.796 12.864 17.84 13.272L17.48 12.432C19.22 12.108 20.468 11.64 21.236 11.028C21.548 10.776 21.8 10.488 22.004 10.164H18.032V9.348H22.4C22.508 9.036 22.592 8.712 22.64 8.376ZM32.024 4.656H37.964V5.436H35.444V7.164H37.592V7.932H35.444V9.84H38.312V10.632H31.7V9.84H34.556V7.932H32.408V7.164H34.556V5.436H32.024V4.656ZM39.932 2.748V13.176H39.056V12.66H30.944V13.176H30.068V2.748H39.932ZM30.944 11.844H39.056V3.564H30.944V11.844ZM36.86 8.184C37.16 8.592 37.424 9.036 37.64 9.504L36.968 9.816C36.728 9.276 36.464 8.808 36.176 8.412L36.86 8.184ZM46.94 7.668L47.732 7.836C47.336 9.516 46.772 10.968 46.052 12.192L45.332 11.736C46.076 10.512 46.604 9.156 46.94 7.668ZM51.116 7.512C51.644 8.868 52.112 10.32 52.496 11.856L51.728 12.204C51.32 10.524 50.864 9.048 50.36 7.764L51.116 7.512ZM48.476 13.14H47.288L47.12 12.324C47.48 12.36 47.84 12.384 48.188 12.384C48.5 12.384 48.668 12.204 48.668 11.844V6.636H45.692V5.796H52.472V6.636H49.532V12.06C49.532 12.78 49.172 13.14 48.476 13.14ZM46.424 2.916H51.848V3.744H46.424V2.916ZM42.02 2.7H45.62V3.384C45.26 4.464 44.828 5.58 44.336 6.744C45.02 7.8 45.392 8.748 45.44 9.6C45.44 10.128 45.32 10.5 45.092 10.74C44.78 11.028 44.228 11.172 43.448 11.184L43.172 10.344C43.352 10.368 43.508 10.392 43.628 10.392C44.012 10.368 44.276 10.296 44.396 10.176C44.528 10.068 44.6 9.876 44.6 9.6C44.6 8.784 44.228 7.884 43.484 6.876C44.036 5.628 44.468 4.512 44.78 3.516H42.86V13.212H42.02V2.7Z" fill="white"/>
</svg>
